# xmcd
#
# Track frame offsets: 
#        150
#        21975
#        36902
#        55756
#        67732
#        82401
#        92899
#        107751
#        126487
#        135422
#        153638
#        163421
#
# Disc length: 2477 seconds
#
# Revision: 0
# Processed by: cddbd v1.5.2PL0 Copyright (c) Steve Scherf et al.
# Submitted via: ExactAudioCopy v0.99pb2
#
DISCID=aa09ab0c
DTITLE=Raghu Lokanathan - Caledonia
DYEAR=2004
DGENRE=Folklore
TTITLE0=Ramona
TTITLE1=You Might See Me Soon
TTITLE2=On the Way There
TTITLE3=Farmer
TTITLE4=The Steam that Turns the Wheel
TTITLE5=The Holy Names
TTITLE6=Caledonia
TTITLE7=Looking for Emily
TTITLE8=Drunk Like Them
TTITLE9=For Bob Snider and Us
TTITLE10=Somethin' Like That
TTITLE11=Halleloo
EXTD=
EXTT0=
EXTT1=
EXTT2=
EXTT3=
EXTT4=
EXTT5=
EXTT6=
EXTT7=
EXTT8=
EXTT9=
EXTT10=
EXTT11=
PLAYORDER=
